<?xml version="1.0" encoding="utf-8"?>
<!-- Generator: Adobe Illustrator 25.3.1, SVG Export Plug-In . SVG Version: 6.00 Build 0)  -->
<svg version="1.1" xmlns="http://www.w3.org/2000/svg" xmlns:xlink="http://www.w3.org/1999/xlink" x="0px" y="0px"
	 viewBox="0 0 197.2 198.2" style="enable-background:new 0 0 197.2 198.2;" xml:space="preserve">
<style type="text/css">
	.st0{display:none;}
	.st1{display:inline;}
</style>
<g id="Layer_1">
	<g>
		<path d="M133.5,14c27.4,0,49.7,22.3,49.7,49.7s-22.3,49.7-49.7,49.7S83.8,91.1,83.8,63.7S106.1,14,133.5,14 M133.5,0
			C98.3,0,69.8,28.5,69.8,63.7s28.5,63.7,63.7,63.7s63.7-28.5,63.7-63.7S168.7,0,133.5,0L133.5,0z"/>
	</g>
	<g>
		<path d="M66.1,116l13.1,13.1l-48.9,48.9l-13.1-13.1L66.1,116 M66.1,100.6c-2.7,0-5.4,1-7.5,3.1L4.8,157.5
			c-4.1,4.1-4.1,10.8,0,14.9l18,18c2.1,2.1,4.8,3.1,7.5,3.1s5.4-1,7.5-3.1l53.8-53.8c4.1-4.1,4.1-10.8,0-14.9l-18-18
			C71.5,101.6,68.8,100.6,66.1,100.6L66.1,100.6z"/>
	</g>
</g>
<g id="Layer_2" class="st0">
	<g class="st1">
		<path d="M34.8,18.1L87.8,71l9.9,9.9l9.9-9.9l52.9-52.9l19.6,19.6l-52.9,52.9l-9.9,9.9l9.9,9.9l52.9,52.9l-19.6,19.6L107.6,130
			l-9.9-9.9l-9.9,9.9l-52.9,52.9l-19.6-19.6l52.9-52.9l9.9-9.9l-9.9-9.9L15.2,37.7L34.8,18.1 M160.5,2.8c-2.8,0-5.6,1.1-7.8,3.2
			l-55,55l-55-55c-2.2-2.2-5-3.2-7.8-3.2S29.2,3.9,27,6.1L3.2,29.9c-4.3,4.3-4.3,11.3,0,15.6l55,55l-55,55c-4.3,4.3-4.3,11.3,0,15.6
			L27,194.9c2.2,2.2,5,3.2,7.8,3.2s5.6-1.1,7.8-3.2l55-55l55,55c2.2,2.2,5,3.2,7.8,3.2c2.8,0,5.6-1.1,7.8-3.2l23.8-23.8
			c4.3-4.3,4.3-11.3,0-15.6l-55-55l55-55c4.3-4.3,4.3-11.3,0-15.6L168.3,6.1C166.1,3.9,163.3,2.8,160.5,2.8L160.5,2.8z"/>
	</g>
</g>
</svg>
