<?xml version="1.0" encoding="utf-8"?>
<!-- Generator: Adobe Illustrator 25.3.1, SVG Export Plug-In . SVG Version: 6.00 Build 0)  -->
<svg version="1.1" xmlns="http://www.w3.org/2000/svg" xmlns:xlink="http://www.w3.org/1999/xlink" x="0px" y="0px"
	 viewBox="0 0 197.2 198.2" style="enable-background:new 0 0 197.2 198.2;" xml:space="preserve">
<style type="text/css">
	.st0{display:none;}
	.st1{display:inline;fill:none;stroke:#000000;stroke-width:11;stroke-linecap:round;stroke-miterlimit:10;}
</style>
<g id="Layer_1">
	<g>
		<path d="M65.6,11c30.1,0,54.6,24.5,54.6,54.6s-24.5,54.6-54.6,54.6S11,95.7,11,65.6S35.5,11,65.6,11 M65.6,0C29.4,0,0,29.4,0,65.6
			s29.4,65.6,65.6,65.6s65.6-29.4,65.6-65.6S101.8,0,65.6,0L65.6,0z"/>
	</g>
	<g>
		<path d="M131.7,116.3l47.9,47.9l-15.5,15.5l-47.9-47.9L131.7,116.3 M131.7,103.5c-1.7,0-3.4,0.7-4.7,2l-21.7,21.7
			c-2.6,2.6-2.6,6.8,0,9.4l54.1,54.1c1.3,1.3,3,2,4.7,2s3.4-0.7,4.7-2l21.7-21.7c2.6-2.6,2.6-6.8,0-9.4l-54.1-54.1
			C135.1,104.2,133.4,103.5,131.7,103.5L131.7,103.5z"/>
	</g>
</g>
<g id="Layer_2" class="st0">
	<line class="st1" x1="189.1" y1="190" x2="8.1" y2="8.1"/>
	<line class="st1" x1="189.1" y1="8.1" x2="8.1" y2="190"/>
</g>
</svg>
